<?xml version="1.0" encoding="UTF-8"?>
<svg id="Capa_1" data-name="Capa 1" xmlns="http://www.w3.org/2000/svg" viewBox="0 0 803.04 289.36">
  <defs>
    <style>
      .cls-1 {
        fill: none;
        opacity: .2;
      }

      .cls-2 {
        fill: #1d1d1b;
      }
    </style>
  </defs>
  <g>
    <path class="cls-2" d="m.54,27.1c12.21,12.51,24.56,24.88,37.06,37.11s25.12,24.31,37.89,36.25c7.21,6.74,14.47,13.44,21.76,20.09,1.78,1.62,4.44-1.02,2.65-2.65-12.92-11.78-25.71-23.7-38.36-35.76s-25.16-24.28-37.53-36.63c-6.99-6.98-13.93-14-20.83-21.06-1.69-1.73-4.34.92-2.65,2.65h0Z"/>
    <path class="cls-2" d="m132.58,45.95c-12.67,17.85-22.75,37.36-31.86,57.22-9.57,20.86-18.44,42.06-27.55,63.13-5.22,12.07-10.45,24.16-14.87,36.55-.81,2.28,2.81,3.26,3.62,1,3.93-11.02,8.5-21.78,13.13-32.52,4.67-10.81,9.34-21.62,14.02-32.42,8.72-20.17,17.32-40.43,27.66-59.84,5.74-10.78,12.02-21.27,19.09-31.23,1.4-1.97-1.85-3.85-3.24-1.89h0Z"/>
    <path class="cls-2" d="m133.79,134.78c-3.43,9.78-6.36,19.74-8.77,29.82-1.22,5.12-2.31,10.27-3.26,15.45s-2.04,10.17-2.19,15.27c-.58,19.75,24.84,24.08,39.78,24.87,2.94.16,5.88.17,8.82.03,2.23-.1,4.47-.25,6.63-.87,3.74-1.08,7.57-3.62,7.45-7.95-.07-2.41-3.82-2.42-3.75,0,.08,2.88-3.32,4.04-5.63,4.57-1.85.42-3.76.46-5.65.53-2.38.08-4.77.07-7.15-.04-4.76-.21-9.49-.81-14.16-1.8-3.74-.79-7.49-1.77-10.97-3.37-3.11-1.43-6.06-3.27-8.31-5.88-2.53-2.92-3.44-6.53-3.29-10.34.18-4.69,1.21-9.43,2.05-14.04s1.84-9.39,2.93-14.05c2.47-10.56,5.51-20.98,9.1-31.22.8-2.28-2.82-3.26-3.62-1h0Z"/>
    <path class="cls-2" d="m126.67,174.7c7.2-1.56,14.59-1.91,21.92-1.11,1.01.11,1.88-.94,1.88-1.88,0-1.1-.86-1.77-1.88-1.88-7.66-.83-15.39-.38-22.92,1.25-2.36.51-1.36,4.13,1,3.62h0Z"/>
    <path class="cls-2" d="m134.19,142.34c14.4-.6,28.8-1.2,43.2-1.81,2.4-.1,2.42-3.85,0-3.75-14.4.6-28.8,1.2-43.2,1.81-2.4.1-2.42,3.85,0,3.75h0Z"/>
    <path class="cls-2" d="m194.59,105.47c19.84,3.56,40,5.29,60.15,5.1,5.69-.05,11.37-.26,17.05-.62,2.4-.15,2.41-3.9,0-3.75-19.79,1.23-39.68.65-59.35-1.78-5.64-.7-11.26-1.56-16.85-2.56-2.36-.42-3.37,3.19-1,3.62h0Z"/>
    <path class="cls-2" d="m235.34,116.31c-.15,17.03-1.49,34.04-4.09,50.87-.73,4.75-1.57,9.49-2.49,14.21-.46,2.36,3.15,3.37,3.62,1,3.32-16.96,5.44-34.15,6.29-51.41.24-4.88.38-9.77.42-14.66.02-2.41-3.73-2.42-3.75,0h0Z"/>
    <path class="cls-2" d="m255.58,230.08c9.13-7.79,17.84-16.05,26.11-24.74l-.76.1c1.88,1,1.4,4.32,1.44,6.08.06,2.72.12,5.43.17,8.15.11,5.35.23,10.7.34,16.06l1.23-.17c-2.97-7.28-5.94-14.55-8.91-21.83-.3-.73-1.51-.41-1.21.33,2.97,7.28,5.94,14.55,8.91,21.83.25.61,1.24.6,1.23-.17-.13-6.01-.26-12.02-.39-18.03-.06-2.93-.08-5.87-.19-8.81-.07-1.71-.35-3.64-2-4.53-.24-.13-.56-.11-.76.1-8.27,8.7-16.98,16.96-26.11,24.74-.61.52.27,1.4.88.88h0Z"/>
    <path class="cls-2" d="m296.25,233.7c1.49-9.54,3.99-18.89,7.47-27.9l-1.23-.17c-1.16,9.83.56,19.84,4.9,28.73.21.42.86.39,1.08,0,4.61-8.43,7.18-17.83,7.55-27.42.03-.8-1.22-.8-1.25,0-.36,9.38-2.87,18.56-7.37,26.79h1.08c-4.25-8.7-5.87-18.49-4.73-28.1.09-.75-1-.77-1.23-.17-3.48,9.01-5.98,18.36-7.47,27.9-.12.79,1.08,1.13,1.21.33h0Z"/>
    <path class="cls-2" d="m329.94,208.9c-4.5,1.15-6.94,5.94-8.22,10.04-1.64,5.29,2.12,9.01,6.54,11.2,2.19,1.08,4.56,2.27,7.04,2.35s4.21-1.3,5.33-3.38c2.34-4.34,3.08-9.92.64-14.38-2.57-4.69-7.78-7.06-12.49-9.06-.73-.31-1.37.77-.63,1.08,3.51,1.49,7.17,3.08,9.91,5.81,3.28,3.27,4.11,7.8,2.94,12.2-.54,2.02-1.47,4.86-3.4,5.97s-4.56.21-6.49-.63c-3.77-1.64-9.16-4.27-8.55-9.24.28-2.27,1.42-4.64,2.61-6.57s2.83-3.6,5.1-4.18c.78-.2.45-1.41-.33-1.21h0Z"/>
    <path class="cls-2" d="m349.44,211.89c6,.31,12,.63,18,.94.8.04.8-1.21,0-1.25-6-.31-12-.63-18-.94-.8-.04-.8,1.21,0,1.25h0Z"/>
    <path class="cls-2" d="m357.22,213.79c-.4,6.27-.23,12.56.53,18.79.1.79,1.35.8,1.25,0-.75-6.24-.93-12.52-.53-18.79.05-.8-1.2-.8-1.25,0h0Z"/>
    <path class="cls-2" d="m374.31,215.3c.61,4.36.88,8.77.83,13.18,0,.8,1.24.81,1.25,0,.06-4.52-.24-9.03-.88-13.51-.11-.79-1.32-.46-1.21.33h0Z"/>
    <path class="cls-2" d="m376.61,224.59l3.03-.54c.32-.06.53-.47.44-.77-.11-.35-.42-.5-.77-.44l-3.03.54c-.32.06-.53.47-.44.77.11.35.42.5.77.44h0Z"/>
    <path class="cls-2" d="m380.17,210.2c-.89,5.94-1.29,11.93-1.17,17.93.02.8,1.27.81,1.25,0-.11-5.89.26-11.77,1.13-17.6.12-.79-1.09-1.13-1.21-.33h0Z"/>
    <path class="cls-2" d="m385.29,217.5c-1.41,3.18-2.63,7.2-.36,10.32.9,1.24,2.19,2.04,3.74,2.1,1.45.06,2.85-.59,3.65-1.82.44-.68-.64-1.31-1.08-.63-.6.92-1.71,1.3-2.77,1.19-1.23-.13-2.2-.95-2.79-2-1.52-2.71-.46-5.91.7-8.53.32-.73-.75-1.37-1.08-.63h0Z"/>
    <path class="cls-2" d="m386.1,222.85l2-1.03c.29-.15.4-.58.22-.86-.19-.3-.54-.38-.86-.22-.67.34-1.33.69-2,1.03-.29.15-.4.58-.22.86.19.3.54.38.86.22h0Z"/>
    <path class="cls-2" d="m388.28,218.78c3.08-1.03,6.2-1.92,9.37-2.64.78-.18.45-1.39-.33-1.21-3.16.73-6.29,1.61-9.37,2.64-.76.25-.43,1.46.33,1.21h0Z"/>
    <path class="cls-2" d="m399.08,215.83c-.23,5.1-.46,10.2-.69,15.3l1.16-.32c-.16-.37-.2-.75-.13-1.15.14-.79-1.07-1.12-1.21-.33s-.05,1.41.26,2.11c.27.61,1.14.25,1.16-.32.23-5.1.46-10.2.69-15.3.04-.8-1.21-.8-1.25,0h0Z"/>
    <path class="cls-2" d="m401.23,218.04c.24-.81,1.39-.7,1.91-.25.85.74.94,2.14,1.02,3.18.17,2.05.21,4.47-1.32,6.05-.35.36-.12,1.12.44,1.07,2.51-.22,4.96.97,6.32,3.1.43.67,1.52.05,1.08-.63-1.59-2.47-4.45-3.98-7.4-3.72l.44,1.07c2.1-2.17,2.01-5.77,1.48-8.54-.25-1.34-.96-2.78-2.41-3.09-1.17-.26-2.43.24-2.78,1.44-.23.77.98,1.1,1.21.33h0Z"/>
    <path class="cls-2" d="m389.21,66.35c1.14,21.08,1.54,42.2,1.19,63.31-.1,5.98-.26,11.97-.48,17.95-.06,1.61,2.44,1.61,2.5,0,.77-21.1.81-42.22.09-63.32-.2-5.98-.47-11.96-.79-17.93-.09-1.6-2.59-1.61-2.5,0h0Z"/>
    <path class="cls-2" d="m388.27,69.46c4.82.8,9.67.55,14.52.25s9.66-.68,14.37.31c4.32.91,8.13,3.11,10.91,6.56,2.6,3.22,4.14,7.19,5.18,11.16,1.15,4.42,1.66,8.95,2.07,13.49.52,5.85.84,11.72.96,17.59.1,4.9.18,9.97-1.37,14.68s-4.92,8.11-9.24,10.37c-10.39,5.43-23.62,5.36-34.53,1.7l.3,2.28c.91-.5,1.82-.99,2.73-1.49,1.41-.77.15-2.93-1.26-2.16-.91.5-1.82.99-2.73,1.49-.99.54-.68,1.96.3,2.28,10.51,3.52,22.51,3.63,32.91-.37,4.51-1.73,8.74-4.37,11.51-8.41,2.94-4.29,3.73-9.64,3.9-14.74.19-5.84-.13-11.73-.52-17.55-.35-5.32-.76-10.68-1.73-15.92-1.59-8.58-5.24-17.68-13.6-21.66-10.69-5.1-22.78-.42-33.99-2.29-1.57-.26-2.25,2.15-.66,2.41h0Z"/>
    <path class="cls-2" d="m467.54,120.17v29.45c0,1.61,2.5,1.61,2.5,0v-29.45c0-1.61-2.5-1.61-2.5,0h0Z"/>
    <path class="cls-2" d="m502.89,125.25c-2.86-1.5-6.16-1.84-9.28-1.03-2.88.75-6.28,2.73-7.45,5.62-1.45,3.6,2.52,5.43,5.22,6.41,2.14.77,4.27,1.55,6.41,2.32.92.33,1.89.61,2.77,1.03,1.12.54,1.15,1.18.59,2.26-1.85,3.58-5.37,6.02-9.29,6.78-1.58.31-.91,2.72.66,2.41,3.21-.63,6.21-2.28,8.44-4.67,1.99-2.13,4.84-6.21,1.57-8.51-1.48-1.04-3.47-1.48-5.15-2.09-1.99-.72-3.99-1.44-5.98-2.17-1.08-.4-3.46-1.23-2.95-2.78.44-1.35,2.11-2.51,3.28-3.18,3.01-1.69,6.82-1.85,9.89-.24,1.42.75,2.69-1.41,1.26-2.16h0Z"/>
    <path class="cls-2" d="m522.75,125.66c-1.93-2.72-5.47-1.06-7.21,1.03-2.46,2.95-4.27,6.53-5.37,10.2-.97,3.22-2.2,7.94-.11,10.94s6.17,3.65,9.49,4.03c4.6.52,9.31-.09,13.64-1.7,1.5-.55.85-2.97-.66-2.41-3.89,1.44-8,2.04-12.14,1.69-3.15-.26-8.53-.91-8.9-4.91-.17-1.86.27-3.84.71-5.63.49-1.96,1.18-3.86,2.08-5.67.84-1.67,1.82-3.33,3.02-4.77.44-.54,2.55-2.56,3.28-1.53.92,1.3,3.09.05,2.16-1.26h0Z"/>
    <path class="cls-2" d="m560.5,125.69c-6.4,2.28-11.99,7.9-13.02,14.8-.91,6.11,2.75,11.6,8.13,14.28s11.85,2.25,17-1.13,9.06-9.43,10.52-15.63c.89-3.78,1.08-8.23-1.19-11.6-1.99-2.95-5.5-4.79-9.06-3.91-1.56.39-.9,2.8.66,2.41,2.62-.65,5.21.99,6.52,3.21,1.61,2.75,1.36,6.24.65,9.22-1.22,5.18-4.09,10.17-8.36,13.42s-9.23,4.24-14.13,2.44c-4.27-1.57-8.17-5.38-8.41-10.13-.35-6.76,5.29-12.83,11.34-14.98,1.51-.54.86-2.95-.66-2.41h0Z"/>
    <path class="cls-2" d="m597.1,111.69c0,12.52,0,25.05,0,37.57,0,1.61,2.5,1.61,2.5,0,0-12.52,0-25.05,0-37.57,0-1.61-2.5-1.61-2.5,0h0Z"/>
    <path class="cls-2" d="m602.72,117.81c3.9-.69,7.86-1,11.82-.91,1.56.04,3.57-.13,5.02.55s1.15,2.57.85,3.9c-1.42,6.13-5.15,11.64-10.29,15.26-.8.57-.84,2.05.3,2.28,8.64,1.77,16.19,7.28,20.48,15,.78,1.41,2.94.15,2.16-1.26-4.58-8.24-12.73-14.25-21.97-16.15l.3,2.28c5.93-4.18,11-11.15,11.75-18.54.18-1.74-.24-3.53-1.73-4.59-1.41-1-3.24-1.07-4.91-1.17-4.83-.27-9.67.08-14.44.92-1.58.28-.91,2.69.66,2.41h0Z"/>
    <path class="cls-2" d="m647.93,108.93c1.91,11.26,4.2,22.44,6.86,33.55.37,1.56,2.79.9,2.41-.66-2.66-11.1-4.94-22.29-6.86-33.55-.27-1.58-2.68-.91-2.41.66h0Z"/>
    <path class="cls-2" d="m655.92,110.49c7.94-2.6,17.46,1.58,20.2,9.65s-1.17,17.4-9.34,20.32c-4.4,1.57-9.35,1.36-13.47-.9-1.41-.77-2.68,1.39-1.26,2.16,8.53,4.67,20.18,1.81,25.01-6.8,4.82-8.59,2.23-19.9-6.32-24.98-4.62-2.75-10.36-3.54-15.49-1.86-1.52.5-.87,2.91.66,2.41h0Z"/>
    <path class="cls-2" d="m503.56,190.9c-1.42,14.05-.48,28.26,2.71,42.02.36,1.57,2.77.9,2.41-.66-3.14-13.54-4.01-27.52-2.62-41.35.16-1.6-2.34-1.59-2.5,0h0Z"/>
    <path class="cls-2" d="m508,194.12c4.86,1.84,10.11,2.61,15.3,2.25,1.6-.11,1.61-2.61,0-2.5-4.99.34-9.95-.39-14.63-2.16-.63-.24-1.37.27-1.54.87-.19.7.24,1.3.87,1.54h0Z"/>
    <path class="cls-2" d="m500.73,202.43c8.62,2.02,17.35,3.51,26.15,4.49,1.6.18,1.58-2.32,0-2.5-8.58-.95-17.09-2.43-25.49-4.4-1.56-.37-2.23,2.04-.66,2.41h0Z"/>
    <path class="cls-2" d="m536.03,214.11c-1.08,5.83-2.16,11.65-3.24,17.48-.29,1.57,2.12,2.25,2.41.66,1.08-5.83,2.16-11.65,3.24-17.48.29-1.57-2.12-2.25-2.41-.66h0Z"/>
    <path class="cls-2" d="m536.47,216.56c.5-1.54,1.04-3.44,2.45-4.41s2.94-.62,3.44,1.04c.89,2.92-.86,6.07-3.58,7.23-.57.24-.73,1.05-.51,1.56.26.62.85.82,1.47.72,2.59-.38,5.29,0,7.7.98,1.21.49,2.38,1.16,3.41,1.95.48.37,1.02.78,1.4,1.26.12.15.18.37.31.51.21.23-.13.28.21.06-1.34.88-.09,3.05,1.26,2.16,1.54-1.02,1.23-2.89.23-4.19-1.07-1.4-2.76-2.5-4.31-3.31-3.36-1.77-7.14-2.37-10.88-1.82l.96,2.28c4.08-1.74,6.55-7.45,4.14-11.44-1.31-2.17-3.96-2.47-6.1-1.39-2.33,1.18-3.27,3.83-4.02,6.15-.5,1.53,1.92,2.19,2.41.66h0Z"/>
    <path class="cls-2" d="m564.07,233.85c1.09-10.48,3.42-20.81,6.87-30.76l-2.09.55c2.61,2.56,2.52,7.12,3.3,10.47.95,4.06,2.34,8,4.08,11.79l2.16-1.26c-2.42-4.06-4.85-8.12-7.27-12.19-.82-1.38-2.99-.12-2.16,1.26,2.42,4.06,4.85,8.12,7.27,12.19.84,1.41,2.82.18,2.16-1.26-1.84-4.01-3.22-8.22-4.13-12.54-.74-3.55-.89-7.53-3.64-10.23-.7-.69-1.78-.33-2.09.55-3.53,10.18-5.84,20.72-6.96,31.43-.17,1.6,2.33,1.59,2.5,0h0Z"/>
    <path class="cls-2" d="m594.34,227.44c-.78-4.21-.13-8.56,1.81-12.36l-1.96.25c2.13,1.95,2.98,4.78,4.14,7.34,1.02,2.26,2.84,5.6,5.61,5.95,1.84.23,2.76-1.29,3.66-2.63,1.2-1.77,2.4-3.55,3.6-5.32,2.4-3.55,4.8-7.1,7.19-10.65l-2.33-.63c-.27,8.33.55,16.66,2.42,24.78.36,1.57,2.77.9,2.41-.66-1.82-7.91-2.6-16-2.33-24.11.04-1.31-1.67-1.6-2.33-.63-2.08,3.07-4.15,6.14-6.23,9.22-1.06,1.57-2.12,3.14-3.18,4.71-.46.68-.92,1.37-1.38,2.05-.22.32-.47.92-.8,1.16-.47.35-.59.24-1.07-.09-1.95-1.3-2.87-3.87-3.74-5.92-.97-2.3-1.99-4.6-3.87-6.32-.56-.51-1.58-.5-1.96.25-2.27,4.44-2.97,9.39-2.06,14.29.29,1.58,2.7.91,2.41-.66h0Z"/>
    <path class="cls-2" d="m633.52,214.07c-2.21,1.82-3.3,4.54-3.72,7.31-.23,1.51-.32,3.03-.32,4.55,0,1.64-.07,3.38.39,4.97,1.66,5.68,9.35,6.24,14.24,5.86,3.5-.27,7.1-2.12,7.43-5.98.14-1.6-2.36-1.59-2.5,0-.31,3.68-5.43,3.59-8.05,3.49-2.46-.09-5.46-.33-7.41-2.03-1.22-1.06-1.51-2.51-1.57-4.07s-.06-3.11.06-4.65c.21-2.87.92-5.77,3.23-7.67,1.24-1.02-.53-2.78-1.77-1.77h0Z"/>
    <path class="cls-2" d="m637.78,224.62c3.84-1.18,7.67-2.36,11.51-3.54,1.53-.47.88-2.89-.66-2.41-3.84,1.18-7.67,2.36-11.51,3.54-1.53.47-.88,2.89.66,2.41h0Z"/>
    <path class="cls-2" d="m639.61,213.09c5.2,2.04,10.87,2.52,16.35,1.5,1.58-.29.91-2.7-.66-2.41-5.05.94-10.25.37-15.02-1.5-.63-.25-1.37.27-1.54.87-.19.71.24,1.29.87,1.54h0Z"/>
    <path class="cls-2" d="m665.61,217.21c1.16,8.16,2.06,16.36,2.71,24.58.04.56.36,1.04.92,1.21,1.98.58,2.92-1.42,3.71-2.84,1.03-1.87,2.06-3.74,3.09-5.61,2.14-3.88,4.29-7.76,6.43-11.64h-2.16c.92,2.14,1.84,4.28,2.76,6.42.86,2.01,1.61,4.16,2.64,6.09.7,1.3,1.97,2.43,3.55,2.02,1.78-.46,2.63-2.56,3.42-4,2-3.68,3.75-7.49,5.24-11.4.75-1.98,1.44-3.98,2.06-6,.31-1.01.6-2.03.87-3.05.14-.51.27-1.02.39-1.54.06-.26.13-.51.19-.77.28-.43.08-.71-.61-.83.03,1.61,2.53,1.61,2.5,0s-1.83-2.5-3.17-1.59c-1.45.99-1.59,3.62-2.02,5.16-1.15,4.11-2.58,8.15-4.31,12.06-.86,1.93-1.78,3.84-2.77,5.71-.49.93-.99,1.87-1.53,2.78-.15.25-.55,1.1-.93,1.07-.25-.02-.46-.41-.57-.58-1.14-1.74-1.79-4.01-2.6-5.92-.99-2.29-1.97-4.59-2.96-6.88-.38-.88-1.74-.75-2.16,0-1.79,3.23-3.57,6.47-5.36,9.7-.87,1.58-1.75,3.16-2.62,4.74-.26.47-2.35,4.52-2.43,4.49l.92,1.21c-.67-8.44-1.61-16.86-2.8-25.24-.23-1.59-2.64-.91-2.41.66h0Z"/>
    <path class="cls-2" d="m723.89,215.39c-5.44.34-9.64,4.12-13.38,7.73-3.38,3.27-7.04,8.63-3.77,13.27,1.37,1.95,3.65,2.86,5.93,3.24,2.46.41,5.26.71,7.71.14,2.85-.66,4.42-3.02,6.11-5.19,1.58-2.01,3.78-4.14,4.51-6.66.77-2.65-.5-5.49-2.49-7.26-2.36-2.09-5.52-2.75-8.53-3.31-1.57-.29-2.25,2.12-.66,2.41,2.18.41,4.46.8,6.4,1.95,1.63.96,3.12,2.74,3.02,4.74-.11,2.1-2.15,3.99-3.37,5.54-1.29,1.65-2.63,4.06-4.57,5-1.82.89-4.21.55-6.16.38-1.83-.16-3.93-.49-5.32-1.8-3.36-3.16.13-7.91,2.56-10.31,3.27-3.22,7.16-7.07,12-7.38,1.6-.1,1.61-2.6,0-2.5h0Z"/>
    <path class="cls-2" d="m747.38,217.95c-3.55,7.36-5.22,15.5-4.78,23.67.09,1.6,2.59,1.61,2.5,0-.41-7.72,1.09-15.43,4.44-22.4.69-1.44-1.46-2.71-2.16-1.26h0Z"/>
    <path class="cls-2" d="m745.64,223.03c2.91-.21,7.67-.55,8.87,2.97,1.01,2.94-2.75,5.01-4.83,6.13-.93.5-.74,2.05.3,2.28,5.43,1.22,10.09,4.72,12.76,9.6.77,1.41,2.93.15,2.16-1.26-2.96-5.42-8.23-9.4-14.26-10.75l.3,2.28c3.2-1.71,7.34-4.73,5.98-8.95-1.54-4.8-7.09-5.11-11.28-4.81-1.6.11-1.61,2.61,0,2.5h0Z"/>
    <path class="cls-2" d="m775.47,217.72c1.61,6.63,1.99,13.45,2.36,20.24.07,1.26,1.64,1.68,2.33.63,2.92-4.42,6-8.74,9.23-12.94,1.6-2.07,3.23-4.11,4.9-6.13.85-1.02,1.7-2.03,2.57-3.03.35-.4.67-.86,1.09-1.19.14-.11.32-.22.49-.3.54-.24.37.07.18-.42.59,1.47,3.01.83,2.41-.66-.96-2.38-3.66-1.59-5.12-.13-2.29,2.3-4.29,5.03-6.3,7.56-4.1,5.15-7.97,10.48-11.6,15.97l2.33.63c-.38-7.01-.79-14.06-2.45-20.9-.38-1.56-2.79-.9-2.41.66h0Z"/>
    <path class="cls-2" d="m789.19,223.59c2.23,5.99,4.47,11.99,6.7,17.98l3.31,8.88c.36.96.75,1.88,1.81,2.22.86.27,1.88-.15,2.02-1.11.22-1.57-2.19-2.25-2.41-.66l.19-.28.88-.37c-.1,0-1.97-5.51-2.26-6.3l-2.61-7.01c-1.74-4.67-3.48-9.34-5.22-14.01-.56-1.49-2.97-.85-2.41.66h0Z"/>
    <g class="cls-1">
      <path d="m245.49,247.22c13.6-12.84,29.12-23.54,45.96-31.67l-.92-.71c-2.2,11.01-5.49,21.77-9.84,32.12-.26.62.63.98,1.04.61,13.01-11.71,27.3-21.94,42.59-30.48l-.94-.54c-.44,11.37-1.45,22.72-3.04,33.98-.1.69.72,1.1,1.14.48,11.77-17.04,23.95-34.61,40.69-47.19,4.62-3.47,9.56-6.49,14.79-8.95l-.94-.54c-.77,11.27-1.98,22.5-3.66,33.67-.08.54.6,1.15,1.04.61,9.53-11.56,21.87-20.67,35.78-26.24l-.79-.6c.08,13.4.17,26.8.25,40.2,0,.8,1.26.81,1.25,0-.08-13.4-.17-26.8-.25-40.2,0-.37-.4-.76-.79-.6-14.12,5.65-26.66,14.82-36.33,26.56l1.04.61c1.69-11.28,2.93-22.62,3.7-34,.03-.51-.55-.72-.94-.54-19.04,8.94-33.21,25.1-45.45,41.76-3.59,4.88-7.04,9.85-10.48,14.83l1.14.48c1.61-11.38,2.64-22.83,3.08-34.32.02-.49-.54-.76-.94-.54-15.37,8.59-29.75,18.9-42.84,30.68l1.04.61c4.34-10.35,7.63-21.11,9.84-32.12.11-.55-.42-.95-.92-.71-13.16,6.36-25.54,14.28-36.82,23.57-3.23,2.66-6.36,5.43-9.39,8.29-.59.55.3,1.44.88.88h0Z"/>
    </g>
  </g>
  <path class="cls-2" d="m263.97,37.4c2.41,0,2.42-3.75,0-3.75s-2.42,3.75,0,3.75h0Z"/>
  <path class="cls-2" d="m283.35,28.23c2.41,0,2.42-3.75,0-3.75s-2.42,3.75,0,3.75h0Z"/>
  <path class="cls-2" d="m616.12,26.67c2.41,0,2.42-3.75,0-3.75s-2.42,3.75,0,3.75h0Z"/>
  <path class="cls-2" d="m631.44,27.43c2.41,0,2.42-3.75,0-3.75s-2.42,3.75,0,3.75h0Z"/>
  <path class="cls-2" d="m454.45,242.38c2.41,0,2.42-3.75,0-3.75s-2.42,3.75,0,3.75h0Z"/>
  <path class="cls-2" d="m472.06,242.38c2.41,0,2.42-3.75,0-3.75s-2.42,3.75,0,3.75h0Z"/>
  <path class="cls-2" d="m405.55,11.09c2.41,0,2.42-3.75,0-3.75s-2.42,3.75,0,3.75h0Z"/>
  <path class="cls-2" d="m416.27,8.8c2.41,0,2.42-3.75,0-3.75s-2.42,3.75,0,3.75h0Z"/>
  <path class="cls-2" d="m173.89,264.7c2.41,0,2.42-3.75,0-3.75s-2.42,3.75,0,3.75h0Z"/>
  <path class="cls-2" d="m193.03,263.17c2.41,0,2.42-3.75,0-3.75s-2.42,3.75,0,3.75h0Z"/>
  <path class="cls-2" d="m145.4,3.75c2.41,0,2.42-3.75,0-3.75s-2.42,3.75,0,3.75h0Z"/>
  <path class="cls-2" d="m156.89,5.28c2.41,0,2.42-3.75,0-3.75s-2.42,3.75,0,3.75h0Z"/>
  <path class="cls-2" d="m78.49,246.78c2.41,0,2.42-3.75,0-3.75s-2.42,3.75,0,3.75h0Z"/>
  <path class="cls-2" d="m89.96,248.42c2.41,0,2.42-3.75,0-3.75s-2.42,3.75,0,3.75h0Z"/>
  <path class="cls-2" d="m3.06,119.31c2.41,0,2.42-3.75,0-3.75s-2.42,3.75,0,3.75h0Z"/>
  <path class="cls-2" d="m11.49,113.19c2.41,0,2.42-3.75,0-3.75s-2.42,3.75,0,3.75h0Z"/>
  <path class="cls-2" d="m502.33,74.79c2.41,0,2.42-3.75,0-3.75s-2.42,3.75,0,3.75h0Z"/>
  <path class="cls-2" d="m519.19,73.26c2.41,0,2.42-3.75,0-3.75s-2.42,3.75,0,3.75h0Z"/>
  <path class="cls-2" d="m724.01,148.05c2.41,0,2.42-3.75,0-3.75s-2.42,3.75,0,3.75h0Z"/>
  <path class="cls-2" d="m738.56,144.22c2.41,0,2.42-3.75,0-3.75s-2.42,3.75,0,3.75h0Z"/>
  <path class="cls-2" d="m265.38,48.26c11.31-5.35,22.62-10.7,33.92-16.06.73-.34.09-1.42-.63-1.08-11.31,5.35-22.62,10.7-33.92,16.06-.73.34-.09,1.42.63,1.08h0Z"/>
  <path class="cls-2" d="m139.54,13.79c8.17-.2,16.34-.4,24.51-.6.8-.02.81-1.27,0-1.25-8.17.2-16.34.4-24.51.6-.8.02-.81,1.27,0,1.25h0Z"/>
  <path class="cls-2" d="m401.2,20.58c3.54,2.81,8.27,5.67,12.99,4.41,3.76-1.01,7.11-4.83,5.95-8.87-.22-.77-1.43-.44-1.21.33,1.02,3.55-2.27,6.82-5.57,7.45-4.12.78-8.2-1.76-11.28-4.2-.62-.49-1.51.38-.88.88h0Z"/>
  <path class="cls-2" d="m496.61,86.75c10.26-3,20.76-5.11,31.39-6.27.79-.09.8-1.34,0-1.25-10.74,1.18-21.35,3.28-31.73,6.32-.77.23-.44,1.43.33,1.21h0Z"/>
  <path class="cls-2" d="m612.28,37.74c5.95-.83,11.95-1.37,17.95-1.57,3.34-.11,8.99.19,9.64,4.41.12.79,1.33.46,1.21-.33-.67-4.29-5.82-5.3-9.44-5.35-6.55-.09-13.22.73-19.7,1.64-.79.11-.46,1.32.33,1.21h0Z"/>
  <path class="cls-2" d="m724.39,154.95c7.49-.95,14.73-3.18,21.46-6.62l-.94-.54c-.48,4.24-3.57,8.11-7.7,9.29s-8.63-.37-11.14-3.71c-.48-.64-1.56-.01-1.08.63,2.85,3.79,7.95,5.61,12.55,4.29s8.07-5.7,8.62-10.5c.06-.51-.56-.73-.94-.54-6.51,3.33-13.57,5.53-20.82,6.45-.79.1-.8,1.35,0,1.25h0Z"/>
  <path class="cls-2" d="m474.96,246.27c-1.91.41-3.77,1.07-5.5,1.99-1.37.72-2.88,1.63-3.58,3.07-1.56,3.21,1.94,5.75,4.59,6.6,3.29,1.05,7.4.98,10.49-.7,1.25-.68,2.17-1.88,1.72-3.35-.24-.77-.71-1.49-1.1-2.19-.46-.82-.95-1.63-1.51-2.38-2.04-2.73-6.01-4.96-9.2-2.64-.64.47-.02,1.55.63,1.08,2.31-1.68,5.24-.36,6.94,1.54.93,1.04,1.64,2.27,2.31,3.49.28.52.68,1.08.79,1.68.14.78-.51,1.31-1.11,1.65-2.44,1.38-5.75,1.54-8.43.95-2.04-.45-6.14-2.11-5.09-4.94.53-1.42,2.17-2.25,3.44-2.9,1.57-.8,3.23-1.36,4.95-1.73.79-.17.45-1.37-.33-1.21h0Z"/>
  <path class="cls-2" d="m175.9,271.09c12.86.97,25.8.34,38.51-1.84.79-.14.46-1.34-.33-1.21-12.6,2.16-25.43,2.75-38.18,1.8-.8-.06-.8,1.19,0,1.25h0Z"/>
  <path class="cls-2" d="m69.5,249.67c4.64,6.33,13.65,8.58,20.71,5.15.72-.35.09-1.43-.63-1.08-6.4,3.11-14.79,1.05-19-4.7-.47-.64-1.56-.02-1.08.63h0Z"/>
  <path class="cls-2" d="m12.8,124.81c-.44-4.24,1.89-8.48,5.72-10.37.72-.36.09-1.43-.63-1.08-4.18,2.07-6.81,6.81-6.34,11.45.08.79,1.33.8,1.25,0h0Z"/>
  <path class="cls-2" d="m613.78,287.81c2.34-1.71,5.15-2.47,7.96-2.99s5.75-.71,8.64-.59c5.87.25,11.63,1.83,16.81,4.6.71.38,1.34-.7.63-1.08-5.38-2.87-11.35-4.51-17.44-4.77-3-.13-6.01.09-8.97.63s-5.84,1.35-8.26,3.11c-.64.47-.02,1.55.63,1.08h0Z"/>
  <path class="cls-2" d="m308.73,286.21c-.79.41-.86,1.35-.42,2.06.49.79,1.38.99,2.21.65,1.06-.44,1.7-1.55,2.35-2.43,1.02-1.38,2.04-2.76,3.06-4.14l-.86.22c.6.43.39,1.53.35,2.15-.05.73-.15,1.53.14,2.22s.98,1.12,1.75,1.06c1.04-.08,1.75-1.07,2.22-1.9l-.54.31c.55.03.82,1.41,1.05,1.81.36.64.96,1.15,1.73,1.13.88-.02,1.56-.7,2.04-1.36.43-.59,1.32-2.66,2.29-1.92.64.49,1.26-.6.63-1.08-.8-.61-1.76-.3-2.48.3-.86.72-1.14,1.92-2.02,2.59-.99.75-1.33-.79-1.64-1.45-.33-.71-.8-1.22-1.62-1.27-.21-.01-.44.13-.54.31-.25.44-1.21,1.91-1.73,1.01-.26-.45-.08-1.28-.04-1.77.08-1.2.1-2.46-.97-3.23-.29-.21-.67-.03-.86.22-1.02,1.38-2.04,2.76-3.06,4.14-.4.54-.78,1.18-1.31,1.62-.24.2-.64.51-.96.31-.13-.08-.35-.4-.17-.49.72-.37.08-1.45-.63-1.08h0Z"/>
  <path class="cls-2" d="m326.4,150.16c.53-5.14,3.65-10.31,8.28-12.78.84-.45,1.54-.5,2.33.05.59.41,1.13.93,1.62,1.44.94.98,1.74,2.08,2.38,3.28s1.14,2.56,1.42,3.93c.12.6.34,1.47-.02,2.03-.41.63-1.54.7-2.2.83-3.72.71-7.52.86-11.29.53-.8-.07-.8,1.18,0,1.25,3.99.35,8.01.14,11.95-.64,1.52-.3,2.88-.85,2.97-2.6.08-1.53-.51-3.2-1.1-4.58s-1.42-2.78-2.41-3.99c-.93-1.14-2.24-2.63-3.71-3.05-1.56-.44-3.07.66-4.25,1.55-1.26.94-2.4,2.04-3.38,3.28-2.17,2.74-3.5,6.02-3.85,9.5-.08.8,1.17.79,1.25,0h0Z"/>
  <path class="cls-2" d="m627.19,275.3c2.41,0,2.42-3.75,0-3.75s-2.42,3.75,0,3.75h0Z"/>
  <path class="cls-2" d="m637.4,272.75c2.41,0,2.42-3.75,0-3.75s-2.42,3.75,0,3.75h0Z"/>
  <path class="cls-2" d="m309.35,274.91c2.41,0,2.42-3.75,0-3.75s-2.42,3.75,0,3.75h0Z"/>
  <path class="cls-2" d="m317.01,273.89c2.41,0,2.42-3.75,0-3.75s-2.42,3.75,0,3.75h0Z"/>
  <path class="cls-2" d="m329.43,133.14c2.41,0,2.42-3.75,0-3.75s-2.42,3.75,0,3.75h0Z"/>
  <path class="cls-2" d="m342.2,131.61c2.41,0,2.42-3.75,0-3.75s-2.42,3.75,0,3.75h0Z"/>
</svg>